HIERARCHY
ROOT Hips
{
	OFFSET 0.000000 89.005402 0.000000
	CHANNELS 6 Xposition Yposition Zposition Xrotation Yrotation Zrotation
	JOINT Spine
	{
		OFFSET 0.116900 10.681000 0.373400
		CHANNELS 3 Xrotation Yrotation Zrotation
		JOINT Spine1
		{
			OFFSET 0.000000 13.840401 0.053500
			CHANNELS 3 Xrotation Yrotation Zrotation
			JOINT Spine2
			{
				OFFSET 0.000000 14.712700 -0.366200
				CHANNELS 3 Xrotation Yrotation Zrotation
				JOINT Neck
				{
					OFFSET 0.000000 35.415497 -3.314200
					CHANNELS 3 Xrotation Yrotation Zrotation
					JOINT Head
					{
						OFFSET 0.000000 16.899200 1.218300
						CHANNELS 3 Xrotation Yrotation Zrotation
						JOINT HeadTop_End
						{
							OFFSET 0.000000 22.206207 2.192500
							CHANNELS 3 Xrotation Yrotation Zrotation
							End Site
							{
								OFFSET 0.000000 22.314178 0.000000
							}
						}
					}
				}
				JOINT LeftShoulder
				{
					OFFSET 12.896400 26.716293 -4.548400
					CHANNELS 3 Xrotation Yrotation Zrotation
					JOINT LeftArm
					{
						OFFSET 19.027000 -4.857010 -1.718400
						CHANNELS 3 Xrotation Yrotation Zrotation
						JOINT LeftForeArm
						{
							OFFSET 24.179897 0.000000 0.000000
							CHANNELS 3 Xrotation Yrotation Zrotation
							JOINT LeftHand
							{
								OFFSET 27.156403 0.000000 0.000000
								CHANNELS 3 Xrotation Yrotation Zrotation
								JOINT LeftHandIndex1
								{
									OFFSET 16.441200 0.000000 0.000000
									CHANNELS 3 Xrotation Yrotation Zrotation
									JOINT LeftHandIndex2
									{
										OFFSET 4.821899 0.000000 0.000000
										CHANNELS 3 Xrotation Yrotation Zrotation
										JOINT LeftHandIndex3
										{
											OFFSET 6.386497 0.000000 0.000000
											CHANNELS 3 Xrotation Yrotation Zrotation
											JOINT LeftHandIndex4
											{
												OFFSET 5.188988 0.000000 0.000000
												CHANNELS 3 Xrotation Yrotation Zrotation
												End Site
												{
													OFFSET -0.178703 5.185913 0.000177
												}
											}
										}
									}
								}
								JOINT LeftHandThumb1
								{
									OFFSET 6.534897 -5.032593 5.900300
									CHANNELS 3 Xrotation Yrotation Zrotation
									JOINT LeftHandThumb2
									{
										OFFSET 3.818176 -2.204422 2.204423
										CHANNELS 3 Xrotation Yrotation Zrotation
										JOINT LeftHandThumb3
										{
											OFFSET 3.252098 -1.877594 1.877601
											CHANNELS 3 Xrotation Yrotation Zrotation
											JOINT LeftHandThumb4
											{
												OFFSET 5.251778 -3.032120 3.032117
												CHANNELS 3 Xrotation Yrotation Zrotation
												End Site
												{
													OFFSET 0.000023 6.780014 0.000000
												}
											}
										}
									}
								}
							}
						}
					}
				}
				JOINT RightShoulder
				{
					OFFSET -12.896300 26.716293 -4.548400
					CHANNELS 3 Xrotation Yrotation Zrotation
					JOINT RightArm
					{
						OFFSET -19.027000 -4.857010 -1.718400
						CHANNELS 3 Xrotation Yrotation Zrotation
						JOINT RightForeArm
						{
							OFFSET -24.179897 0.000000 0.000000
							CHANNELS 3 Xrotation Yrotation Zrotation
							JOINT RightHand
							{
								OFFSET -27.156403 0.000000 0.000000
								CHANNELS 3 Xrotation Yrotation Zrotation
								JOINT RightHandThumb1
								{
									OFFSET -6.591202 -4.852203 5.988100
									CHANNELS 3 Xrotation Yrotation Zrotation
									JOINT RightHandThumb2
									{
										OFFSET -3.818176 -2.204422 2.204423
										CHANNELS 3 Xrotation Yrotation Zrotation
										JOINT RightHandThumb3
										{
											OFFSET -3.252098 -1.877594 1.877601
											CHANNELS 3 Xrotation Yrotation Zrotation
											JOINT RightHandThumb4
											{
												OFFSET -5.251778 -3.032120 3.032117
												CHANNELS 3 Xrotation Yrotation Zrotation
												End Site
												{
													OFFSET -0.000023 6.780014 0.000000
												}
											}
										}
									}
								}
								JOINT RightHandIndex1
								{
									OFFSET -16.029404 0.000000 0.000000
									CHANNELS 3 Xrotation Yrotation Zrotation
									JOINT RightHandIndex2
									{
										OFFSET -5.213303 0.000000 0.000000
										CHANNELS 3 Xrotation Yrotation Zrotation
										JOINT RightHandIndex3
										{
											OFFSET -6.386528 0.000000 0.000000
											CHANNELS 3 Xrotation Yrotation Zrotation
											JOINT RightHandIndex4
											{
												OFFSET -5.189026 0.000000 0.000000
												CHANNELS 3 Xrotation Yrotation Zrotation
												End Site
												{
													OFFSET 0.236702 5.183624 0.001972
												}
											}
										}
									}
								}
							}
						}
					}
				}
			}
		}
	}
	JOINT LeftUpLeg
	{
		OFFSET 14.073000 -7.904099 -1.463000
		CHANNELS 3 Xrotation Yrotation Zrotation
		JOINT LeftLeg
		{
			OFFSET -0.109806 -34.073280 4.093200
			CHANNELS 3 Xrotation Yrotation Zrotation
			JOINT LeftFoot
			{
				OFFSET 0.109806 -29.899420 -6.319000
				CHANNELS 3 Xrotation Yrotation Zrotation
				JOINT LeftToeBase
				{
					OFFSET 1.551100 -14.988700 20.535801
					CHANNELS 3 Xrotation Yrotation Zrotation
					JOINT LeftToe_End
					{
						OFFSET 0.221200 0.570800 13.248301
						CHANNELS 3 Xrotation Yrotation Zrotation
						End Site
						{
							OFFSET 0.000000 13.262435 0.000000
						}
					}
				}
			}
		}
	}
	JOINT RightUpLeg
	{
		OFFSET -13.839300 -7.904099 -1.463000
		CHANNELS 3 Xrotation Yrotation Zrotation
		JOINT RightLeg
		{
			OFFSET 0.109694 -34.073219 4.093300
			CHANNELS 3 Xrotation Yrotation Zrotation
			JOINT RightFoot
			{
				OFFSET -0.109694 -29.899384 -6.319200
				CHANNELS 3 Xrotation Yrotation Zrotation
				JOINT RightToeBase
				{
					OFFSET -1.551100 -14.988700 20.535801
					CHANNELS 3 Xrotation Yrotation Zrotation
					JOINT RightToe_End
					{
						OFFSET -0.221200 0.570900 13.248299
						CHANNELS 3 Xrotation Yrotation Zrotation
						End Site
						{
							OFFSET 0.000000 13.262440 0.000000
						}
					}
				}
			}
		}
	}
}
MOTION
Frames: 8
Frame Time: 0.033333
-4.095839 81.489166 0.305436 47.929579 -69.057365 48.158656 6.641264 0.673113 1.498022 12.628878 1.139323 1.845160 12.626286 1.190887 1.890562 4.934783 -1.963344 -0.348447 17.929824 -11.001917 6.403689 0.000001 -0.000000 -0.000000 -3.995104 -23.538562 -2.785066 -23.504515 -25.181919 -80.081448 0.000002 -38.389812 -0.000005 -46.173629 27.416016 9.984038 7.111134 8.625877 -76.996101 7.364126 5.652685 -105.011529 1.316421 3.701447 -39.145238 -0.000000 0.000001 0.000001 -9.235384 -2.147951 9.232412 8.361294 10.198103 10.706119 -19.033021 -10.893224 6.825932 0.000002 -0.000001 -0.000001 -3.905351 29.217647 10.003118 -34.802959 -12.407203 69.791337 0.000015 29.841817 -0.000018 -17.416397 -19.414939 -5.002461 4.421803 -7.563078 -15.368394 -6.711076 -17.341480 -6.658224 2.168822 11.253730 -14.046192 -0.000000 -0.000000 -0.000000 4.590326 -12.053727 27.506119 4.617857 -4.657008 89.515961 2.468700 -4.111941 61.945028 0.000000 0.000000 0.000000 -39.567853 0.930460 3.090127 34.379221 3.880758 1.116586 -10.514333 1.337097 -6.294235 -1.052482 3.045581 -2.107238 -0.000000 -0.000001 0.000000 -36.233757 1.442069 -8.731403 33.619431 1.697283 -10.630653 -12.005802 -4.252917 16.598470 -2.558848 -0.000017 0.000002 -0.000000 -0.000000 -0.000000 
-4.132534 81.509819 0.114184 47.797794 -69.152824 48.023405 6.638808 0.750581 1.527939 12.647146 1.278508 1.870682 12.644683 1.329170 1.914205 4.874872 -2.051974 -0.522469 17.728603 -11.656051 6.336473 -0.000001 -0.000000 -0.000000 -4.296345 -23.402789 -2.793124 -25.001918 -24.582865 -80.990143 -0.000002 -37.295558 0.000008 -49.345320 32.522755 12.087884 7.441534 8.542686 -80.300738 7.233050 5.686068 -103.684806 1.321027 3.707066 -39.216385 -0.000002 -0.000001 -0.000002 -13.223948 -3.662093 7.324950 7.222817 8.925451 9.733437 -19.107271 -10.536187 5.885909 0.000001 0.000002 0.000000 -3.771307 26.967078 11.251678 -35.742445 -9.259459 70.134643 -0.000018 28.030524 0.000011 -17.480059 -18.887406 -6.096309 4.208637 -7.586922 -14.118482 -5.184543 -18.136577 -6.416422 2.085286 11.878962 -14.282037 0.000003 -0.000000 -0.000001 4.708992 -12.063157 28.176156 4.543054 -4.655786 88.594254 2.638827 -4.197949 64.292769 0.000002 0.000000 0.000000 -39.416752 1.001946 3.257882 34.271075 3.764806 1.236910 -10.449006 1.372432 -6.494752 -1.059662 3.012271 -2.079239 0.000000 0.000000 -0.000000 -36.187415 1.388879 -8.529598 33.709080 1.656898 -10.621558 -12.058041 -4.219988 16.405177 -2.508774 -0.000029 0.000000 -0.000000 0.000001 0.000000 
-4.177265 81.533569 -0.083885 47.909576 -69.423907 48.153469 6.648117 0.811972 1.530804 12.686084 1.387358 1.852876 12.683871 1.436917 1.894481 4.807335 -2.089987 -0.785378 17.588866 -12.185256 6.379497 0.000000 -0.000000 0.000000 -5.181816 -24.027509 -2.885182 -25.260727 -23.700604 -81.166136 0.000009 -36.472404 -0.000009 -53.556756 37.341850 14.245959 7.740474 8.439612 -83.602745 7.101207 5.716412 -102.357973 1.325640 3.712710 -39.287566 0.000001 0.000000 0.000001 -17.253171 -5.043545 5.539951 6.110546 7.614284 8.762978 -19.161266 -10.179334 4.950851 -0.000001 0.000000 0.000000 -3.494908 24.741073 12.388992 -36.755584 -6.155004 70.721917 -0.000007 26.006307 0.000012 -17.602480 -17.960285 -7.223751 3.562016 -7.540296 -13.398049 -3.572439 -19.003111 -5.970064 2.022777 13.110309 -14.786883 -0.000001 0.000001 -0.000003 4.753697 -11.961201 28.771257 4.463994 -4.653166 87.620208 2.729015 -4.240096 65.518706 0.000003 -0.000000 -0.000002 -39.144057 1.095394 3.476950 34.198808 3.778997 1.360512 -10.457780 1.420895 -6.755023 -1.065269 3.044926 -2.103114 0.000000 0.000001 -0.000000 -36.134153 1.370529 -8.327935 33.820085 1.776161 -10.516873 -12.093303 -4.165393 16.106947 -2.436595 0.000030 -0.000003 0.000000 0.000000 -0.000000 
-4.210110 81.559662 -0.283231 48.204525 -69.860780 48.457713 6.662117 0.834738 1.512174 12.736464 1.416927 1.795777 12.734677 1.465362 1.835196 4.714091 -2.070725 -1.112210 17.507102 -12.498152 6.289908 0.000001 -0.000000 0.000000 -6.078022 -24.640186 -3.077148 -25.326849 -23.152316 -80.998052 -0.000001 -35.419199 -0.000001 -58.231830 41.917243 16.373818 8.008393 8.321561 -86.901904 6.968732 5.743684 -101.030942 1.330244 3.718297 -39.358723 -0.000002 0.000001 -0.000001 -21.306582 -6.302761 3.890969 5.024711 6.265559 7.796063 -19.194932 -9.822496 4.020059 0.000003 0.000000 0.000001 -3.070056 22.417845 13.387021 -37.897335 -3.315399 71.681845 0.000012 23.762320 -0.000008 -17.632009 -16.534271 -8.338102 2.448696 -7.349275 -13.113792 -1.791061 -19.967127 -5.220942 2.041297 14.688926 -15.653617 0.000002 0.000001 0.000003 4.747101 -11.872434 29.027860 4.400959 -4.650123 86.843055 2.790021 -4.267267 66.341047 -0.000001 -0.000000 0.000001 -38.773655 1.172367 3.732822 34.180995 3.935876 1.530758 -10.524799 1.491496 -7.094231 -1.048827 3.046344 -2.109043 -0.000000 -0.000002 -0.000000 -36.038769 1.372845 -8.052093 33.901279 1.982765 -10.429951 -12.074073 -4.094902 15.785983 -2.398366 0.000006 0.000000 0.000000 0.000001 -0.000000 
-4.238899 81.567474 -0.464801 49.156503 -70.410740 49.346081 6.679770 0.830859 1.438885 12.793520 1.393344 1.653512 12.792364 1.440285 1.690775 4.559165 -2.003215 -1.401094 17.351530 -12.511299 6.030386 0.000000 -0.000000 0.000000 -6.891038 -25.268524 -3.086302 -25.928747 -22.994517 -81.077248 -0.000003 -33.895046 -0.000029 -62.399249 45.969868 18.457922 8.246648 8.193067 -90.198153 6.835621 5.767912 -99.703864 1.334852 3.723938 -39.429910 -0.000001 -0.000002 -0.000002 -25.367218 -7.451794 2.391305 3.965542 4.880199 6.834120 -19.208258 -9.465509 3.092938 -0.000002 -0.000001 -0.000001 -2.547332 19.988673 14.404393 -39.134085 -0.364496 72.627205 -0.000001 21.476816 0.000005 -18.324814 -14.656348 -9.493682 1.082380 -7.078706 -12.897860 0.106089 -20.828978 -4.384969 2.123310 16.242844 -16.628157 -0.000000 -0.000000 -0.000001 4.665379 -11.848064 28.619171 4.365569 -4.648041 86.406251 2.866140 -4.299710 67.360268 0.000000 -0.000001 0.000000 -38.484595 1.252945 4.110465 34.331229 4.258559 1.709706 -10.722261 1.575205 -7.497723 -1.099699 3.041508 -2.090585 -0.000000 -0.000000 -0.000000 -36.042430 1.474738 -7.625555 33.923979 2.304846 -10.375434 -11.968185 -4.012325 15.467033 -2.385398 0.000010 -0.000002 -0.000000 0.000000 -0.000000 
-4.267069 81.567543 -0.590220 50.731725 -71.106948 50.778437 6.708867 0.777947 1.320192 12.873186 1.285621 1.467370 12.872974 1.330238 1.502510 4.394657 -1.863595 -1.735137 17.054446 -12.231434 5.645494 0.000001 0.000000 0.000000 -7.767534 -25.904998 -3.339005 -27.326151 -22.796217 -81.321059 -0.000003 -31.534577 -0.000006 -63.356616 49.580104 18.897506 8.457530 8.058217 -93.491588 6.701998 5.789064 -98.376642 1.339480 3.729530 -39.501050 0.000001 0.000000 -0.000001 -29.417635 -8.504336 1.053464 2.933291 3.459188 5.878661 -19.201197 -9.108195 2.168781 -0.000002 -0.000000 -0.000001 -1.905872 17.561465 15.247047 -40.619637 2.502191 73.556090 -0.000010 19.098869 0.000018 -20.019947 -12.430842 -10.865119 -0.099524 -6.916174 -12.272698 1.819879 -21.139246 -4.045381 2.162326 17.280746 -17.100951 0.000000 0.000001 0.000000 4.433720 -11.830511 27.271074 4.355714 -4.647447 86.284687 2.981342 -4.345841 68.888584 0.000001 -0.000000 0.000002 -38.195241 1.294689 4.542400 34.639711 4.811169 1.963609 -11.059091 1.690982 -7.992441 -1.036486 3.125180 -2.174075 0.000000 -0.000001 0.000000 -36.051917 1.621598 -7.080090 33.837027 2.705474 -10.340077 -11.758472 -3.914644 15.172741 -2.369054 -0.000005 0.000007 -0.000000 0.000000 -0.000000 
-4.296642 81.561028 -0.636561 52.938908 -72.000214 52.867003 6.768290 0.677375 1.081693 13.013345 1.089692 1.087747 13.014290 1.131526 1.120745 4.242817 -1.699490 -1.849475 16.622546 -11.526696 5.005748 -0.000003 0.000000 0.000000 -8.795093 -29.284241 -4.971398 -24.195918 -20.644312 -77.821024 0.000014 -34.210239 0.000005 -62.169625 53.254398 19.168832 7.788355 8.196773 -90.110494 6.567906 5.807146 -97.049209 1.344100 3.735108 -39.571872 0.000001 -0.000001 0.000000 -32.185060 -5.983693 -0.513958 1.324517 3.154696 6.962577 -18.871037 -7.737057 2.893063 -0.000002 0.000001 0.000005 -1.210463 14.938797 16.399043 -42.430501 5.328014 74.321836 -0.000000 16.337389 -0.000003 -22.805585 -9.755726 -12.374489 -0.903108 -6.897522 -11.312187 2.986705 -20.671339 -4.544758 2.079453 17.484876 -16.722156 -0.000000 0.000000 0.000000 4.034480 -11.717247 25.145321 4.363019 -4.647891 86.374723 3.117284 -4.395758 70.672193 -0.000000 -0.000002 -0.000001 -37.777216 1.401066 4.983224 35.056779 5.562473 2.182505 -11.540347 1.821108 -8.485512 -1.119818 3.156930 -2.174496 -0.000000 -0.000001 -0.000000 -36.055913 1.743861 -6.567164 33.736821 3.388271 -10.302451 -11.499050 -3.802397 14.861083 -2.448247 0.000012 -0.000000 0.000000 0.000000 -0.000000 
-4.316252 81.528763 -0.590376 56.170205 -72.990017 55.914770 6.817076 0.507008 0.758279 13.128248 0.743486 0.548786 13.130561 0.782500 0.579474 4.123208 -1.481830 -1.868258 16.252452 -10.435432 4.385832 -0.000002 0.000000 -0.000000 -10.025647 -32.774038 -6.817521 -22.482006 -18.489080 -74.722638 -0.000023 -34.819461 -0.000018 -55.776851 56.794150 14.704658 7.106792 8.276559 -86.727283 6.433403 5.822119 -95.721679 1.348719 3.740689 -39.642705 0.000001 0.000002 0.000001 -34.865438 -3.396686 -1.972446 -0.291664 2.815899 8.024015 -18.551268 -6.362480 3.606411 0.000001 0.000000 0.000002 -0.408060 12.176906 17.558072 -44.540261 8.136297 75.144423 -0.000000 13.098010 0.000012 -26.767342 -6.650178 -14.111923 -3.544801 -7.421926 -9.727542 3.427224 -19.772375 -5.420606 1.936002 16.903142 -15.891087 -0.000001 0.000001 0.000001 3.589470 -11.443728 23.077732 4.381382 -4.649013 86.601580 3.216575 -4.429248 71.962511 -0.000000 -0.000000 0.000000 -37.415196 1.581087 5.529165 35.699620 6.452186 2.320379 -12.204597 1.958497 -8.939413 -1.158516 3.116974 -2.132161 0.000000 0.000002 -0.000000 -36.146553 1.859568 -6.012736 33.585434 4.334780 -10.257401 -11.154215 -3.676578 14.555557 -2.361888 0.000041 -0.000001 -0.000000 -0.000000 -0.000000 
